STARTFONT 2.1
COMMENT Created by fdbbdf
FONT SymbolA22
SIZE 22 78 78
FONTBOUNDINGBOX 27 32 -1 -8
STARTPROPERTIES 4
Ownership "  Copyright (c) 1984 Adobe Systems, Inc.  /adobe/fonts/Times/Greek/fontvec.ps TG24.bits  TOTAL BITMAP BYTES 5722  GUIDELINES 0 0 0 0 17 13 -5 DONE  "
FONT_ASCENT 24
FONT_DESCENT 8
DEFAULT_CHAR 33
ENDPROPERTIES
CHARS 94
STARTCHAR bracerightbt
ENCODING -1 126
SWIDTH 0 0
DWIDTH 12 0
BBX 7 28 0 -6
BITMAP
0600
0600
0600
0600
0600
0600
0600
0600
0600
0600
0600
0600
0600
0600
0600
0600
0600
0600
0600
0600
0600
0600
0600
0600
0c00
0c00
1800
f000
ENDCHAR
STARTCHAR bracerightmid
ENCODING -1 125
SWIDTH 0 0
DWIDTH 12 0
BBX 5 28 5 -6
BITMAP
c000
c000
c000
c000
c000
c000
c000
c000
c000
c000
4000
6000
3000
1800
3000
6000
4000
c000
c000
c000
c000
c000
c000
c000
c000
c000
c000
c000
ENDCHAR
STARTCHAR bracerighttp
ENCODING -1 124
SWIDTH 0 0
DWIDTH 12 0
BBX 7 28 0 -6
BITMAP
f000
1800
0c00
0c00
0600
0600
0600
0600
0600
0600
0600
0600
0600
0600
0600
0600
0600
0600
0600
0600
0600
0600
0600
0600
0600
0600
0600
0600
ENDCHAR
STARTCHAR bracketrightbt
ENCODING -1 123
SWIDTH 0 0
DWIDTH 10 0
BBX 7 28 2 -6
BITMAP
0600
0600
0600
0600
0600
0600
0600
0600
0600
0600
0600
0600
0600
0600
0600
0600
0600
0600
0600
0600
0600
0600
0600
0600
0600
0600
0600
fe00
ENDCHAR
STARTCHAR bracketrightex
ENCODING -1 122
SWIDTH 0 0
DWIDTH 10 0
BBX 2 28 7 -6
BITMAP
c000
c000
c000
c000
c000
c000
c000
c000
c000
c000
c000
c000
c000
c000
c000
c000
c000
c000
c000
c000
c000
c000
c000
c000
c000
c000
c000
c000
ENDCHAR
STARTCHAR bracketrighttp
ENCODING -1 121
SWIDTH 0 0
DWIDTH 10 0
BBX 7 28 2 -6
BITMAP
fe00
0600
0600
0600
0600
0600
0600
0600
0600
0600
0600
0600
0600
0600
0600
0600
0600
0600
0600
0600
0600
0600
0600
0600
0600
0600
0600
0600
ENDCHAR
STARTCHAR parenrightbt
ENCODING -1 120
SWIDTH 0 0
DWIDTH 10 0
BBX 9 31 0 -9
BITMAP
0180
0180
0180
0180
0180
0180
0180
0180
0180
0180
0180
0180
0180
0180
0180
0180
0180
0180
0180
0300
0300
0300
0300
0600
0600
0c00
0c00
1800
3000
6000
c000
ENDCHAR
STARTCHAR parenrightex
ENCODING -1 119
SWIDTH 0 0
DWIDTH 10 0
BBX 2 31 7 -9
BITMAP
c000
c000
c000
c000
c000
c000
c000
c000
c000
c000
c000
c000
c000
c000
c000
c000
c000
c000
c000
c000
c000
c000
c000
c000
c000
c000
c000
c000
c000
c000
c000
ENDCHAR
STARTCHAR parenrighttp
ENCODING -1 118
SWIDTH 0 0
DWIDTH 10 0
BBX 9 31 0 -9
BITMAP
c000
6000
3000
1800
0c00
0c00
0600
0600
0300
0300
0300
0300
0180
0180
0180
0180
0180
0180
0180
0180
0180
0180
0180
0180
0180
0180
0180
0180
0180
0180
0180
ENDCHAR
STARTCHAR integralbt
ENCODING -1 117
SWIDTH 0 0
DWIDTH 17 0
BBX 8 25 2 -3
BITMAP
0300
0300
0300
0300
0300
0300
0300
0300
0300
0300
0300
0300
0300
0300
0300
0300
0300
0300
0300
0300
0200
0600
cc00
d800
7000
ENDCHAR
STARTCHAR integralex
ENCODING -1 116
SWIDTH 0 0
DWIDTH 17 0
BBX 2 29 8 -6
BITMAP
c000
c000
c000
c000
c000
c000
c000
c000
c000
c000
c000
c000
c000
c000
c000
c000
c000
c000
c000
c000
c000
c000
c000
c000
c000
c000
c000
c000
c000
ENDCHAR
STARTCHAR integraltp
ENCODING -1 115
SWIDTH 0 0
DWIDTH 17 0
BBX 8 28 8 -6
BITMAP
0e00
1b00
3300
2000
6000
4000
c000
c000
c000
c000
c000
c000
c000
c000
c000
c000
c000
c000
c000
c000
c000
c000
c000
c000
c000
c000
c000
c000
ENDCHAR
STARTCHAR integral
ENCODING -1 114
SWIDTH 0 0
DWIDTH 8 0
BBX 8 28 0 -6
BITMAP
0700
0f00
1b00
1800
1800
1800
1800
1800
1800
1800
1800
1800
1800
1800
1800
1800
1800
1800
1800
1800
1800
1800
1800
1800
1800
d800
f000
e000
ENDCHAR
STARTCHAR angleright
ENCODING -1 113
SWIDTH 0 0
DWIDTH 8 0
BBX 7 22 1 -6
BITMAP
c000
c000
6000
6000
3000
3000
1800
1800
0c00
0c00
0600
0600
0c00
0c00
1800
1800
3000
3000
6000
6000
c000
c000
ENDCHAR
STARTCHAR apple
ENCODING -1 112
SWIDTH 0 0
DWIDTH 18 0
BBX 16 21 1 -1
BITMAP
0030
0070
00f0
00e0
00c0
1eb8
3ffc
7ffe
7ffc
fff8
fff8
fff8
fff8
fffc
fffe
7fff
7fff
3ffe
3ffe
1ffc
0e38
ENDCHAR
STARTCHAR braceex
ENCODING -1 111
SWIDTH 0 0
DWIDTH 12 0
BBX 2 28 5 -6
BITMAP
c000
c000
c000
c000
c000
c000
c000
c000
c000
c000
c000
c000
c000
c000
c000
c000
c000
c000
c000
c000
c000
c000
c000
c000
c000
c000
c000
c000
ENDCHAR
STARTCHAR braceleftbt
ENCODING -1 110
SWIDTH 0 0
DWIDTH 12 0
BBX 7 28 5 -6
BITMAP
c000
c000
c000
c000
c000
c000
c000
c000
c000
c000
c000
c000
c000
c000
c000
c000
c000
c000
c000
c000
c000
c000
c000
c000
6000
6000
3000
1e00
ENDCHAR
STARTCHAR braceleftmid
ENCODING -1 109
SWIDTH 0 0
DWIDTH 12 0
BBX 5 28 2 -6
BITMAP
1800
1800
1800
1800
1800
1800
1800
1800
1800
1800
1000
3000
6000
c000
6000
3000
1000
1800
1800
1800
1800
1800
1800
1800
1800
1800
1800
1800
ENDCHAR
STARTCHAR bracelefttp
ENCODING -1 108
SWIDTH 0 0
DWIDTH 12 0
BBX 7 28 5 -6
BITMAP
1e00
3000
6000
6000
c000
c000
c000
c000
c000
c000
c000
c000
c000
c000
c000
c000
c000
c000
c000
c000
c000
c000
c000
c000
c000
c000
c000
c000
ENDCHAR
STARTCHAR bracketleftbt
ENCODING -1 107
SWIDTH 0 0
DWIDTH 10 0
BBX 7 28 1 -6
BITMAP
c000
c000
c000
c000
c000
c000
c000
c000
c000
c000
c000
c000
c000
c000
c000
c000
c000
c000
c000
c000
c000
c000
c000
c000
c000
c000
c000
fe00
ENDCHAR
STARTCHAR bracketleftex
ENCODING -1 106
SWIDTH 0 0
DWIDTH 10 0
BBX 2 28 1 -6
BITMAP
c000
c000
c000
c000
c000
c000
c000
c000
c000
c000
c000
c000
c000
c000
c000
c000
c000
c000
c000
c000
c000
c000
c000
c000
c000
c000
c000
c000
ENDCHAR
STARTCHAR bracketlefttp
ENCODING -1 105
SWIDTH 0 0
DWIDTH 10 0
BBX 7 28 1 -6
BITMAP
fe00
c000
c000
c000
c000
c000
c000
c000
c000
c000
c000
c000
c000
c000
c000
c000
c000
c000
c000
c000
c000
c000
c000
c000
c000
c000
c000
c000
ENDCHAR
STARTCHAR parenleftbt
ENCODING -1 104
SWIDTH 0 0
DWIDTH 10 0
BBX 9 31 1 -9
BITMAP
c000
c000
c000
c000
c000
c000
c000
c000
c000
c000
c000
c000
c000
c000
c000
c000
c000
c000
c000
6000
6000
6000
6000
3000
3000
1800
1800
0c00
0600
0300
0180
ENDCHAR
STARTCHAR parenleftex
ENCODING -1 103
SWIDTH 0 0
DWIDTH 10 0
BBX 2 31 1 -9
BITMAP
c000
c000
c000
c000
c000
c000
c000
c000
c000
c000
c000
c000
c000
c000
c000
c000
c000
c000
c000
c000
c000
c000
c000
c000
c000
c000
c000
c000
c000
c000
c000
ENDCHAR
STARTCHAR parenlefttp
ENCODING -1 102
SWIDTH 0 0
DWIDTH 10 0
BBX 9 31 1 -9
BITMAP
0180
0300
0600
0c00
1800
1800
3000
3000
6000
6000
6000
6000
c000
c000
c000
c000
c000
c000
c000
c000
c000
c000
c000
c000
c000
c000
c000
c000
c000
c000
c000
ENDCHAR
STARTCHAR summation
ENCODING -1 101
SWIDTH 0 0
DWIDTH 18 0
BBX 14 20 2 -3
BITMAP
fff8
e018
7008
3800
1c00
0e00
0700
0380
01c0
00c0
0180
0300
0600
0c00
1800
3000
6004
c00c
fffc
fffc
ENDCHAR
STARTCHAR trademarksans
ENCODING -1 100
SWIDTH 0 0
DWIDTH 20 0
BBX 18 10 1 6
BITMAP
fec0c000
18c0c000
18e1c000
18e1c000
18f3c000
18d2c000
18dec000
18ccc000
18ccc000
18ccc000
ENDCHAR
STARTCHAR copyrightsans
ENCODING -1 99
SWIDTH 0 0
DWIDTH 18 0
BBX 16 17 1 -1
BITMAP
07e0
1e78
381c
6006
63c6
c663
cc23
cc03
c803
c803
cc03
cc23
6666
63c6
381c
1e78
07e0
ENDCHAR
STARTCHAR registersans
ENCODING -1 98
SWIDTH 0 0
DWIDTH 18 0
BBX 16 17 1 -1
BITMAP
07e0
1e78
381c
6006
67e6
c633
c633
c633
c7e3
c663
c633
c633
6632
6006
381c
1e78
07e0
ENDCHAR
STARTCHAR angleleft
ENCODING -1 97
SWIDTH 0 0
DWIDTH 8 0
BBX 7 22 0 -6
BITMAP
0600
0600
0c00
0c00
1800
1800
3000
3000
6000
6000
c000
c000
6000
6000
3000
3000
1800
1800
0c00
0c00
0600
0600
ENDCHAR
STARTCHAR lozenge
ENCODING -1 96
SWIDTH 0 0
DWIDTH 12 0
BBX 10 18 1 -1
BITMAP
0c00
1e00
1e00
3300
3300
6180
6180
c0c0
c0c0
c0c0
c0c0
6180
6180
3300
3300
1e00
1e00
0c00
ENDCHAR
STARTCHAR arrowdbldown
ENCODING -1 95
SWIDTH 0 0
DWIDTH 14 0
BBX 12 23 1 -1
BITMAP
1980
1980
1980
1980
1980
1980
1980
1980
1980
1980
1980
1980
1980
1980
1980
1980
1980
d9b0
79e0
39c0
1f80
0f00
0600
ENDCHAR
STARTCHAR arrowdblright
ENCODING -1 94
SWIDTH 0 0
DWIDTH 25 0
BBX 23 12 1 -1
BITMAP
0000c000
00006000
00003000
fffff800
fffffc00
00000e00
00000e00
fffffc00
fffff800
00003000
00006000
0000c000
ENDCHAR
STARTCHAR arrowdblup
ENCODING -1 93
SWIDTH 0 0
DWIDTH 14 0
BBX 12 23 1 -1
BITMAP
0600
0f00
1f80
39c0
79e0
d9b0
1980
1980
1980
1980
1980
1980
1980
1980
1980
1980
1980
1980
1980
1980
1980
1980
1980
ENDCHAR
STARTCHAR arrowdblleft
ENCODING -1 92
SWIDTH 0 0
DWIDTH 25 0
BBX 23 12 1 -1
BITMAP
06000000
0c000000
18000000
3ffffe00
7ffffe00
e0000000
e0000000
7ffffe00
3ffffe00
18000000
0c000000
06000000
ENDCHAR
STARTCHAR arrowdblboth
ENCODING -1 91
SWIDTH 0 0
DWIDTH 25 0
BBX 23 12 1 -1
BITMAP
0600c000
0c006000
18003000
3ffff800
7ffffc00
e0000e00
e0000e00
7ffffc00
3ffff800
18003000
0c006000
0600c000
ENDCHAR
STARTCHAR logicalor
ENCODING -1 90
SWIDTH 0 0
DWIDTH 15 0
BBX 13 12 1 -1
BITMAP
c018
c018
6030
6030
3060
3060
18c0
18c0
0d80
0d80
0700
0700
ENDCHAR
STARTCHAR logicaland
ENCODING -1 89
SWIDTH 0 0
DWIDTH 15 0
BBX 13 12 1 -1
BITMAP
0700
0700
0d80
0d80
18c0
18c0
3060
3060
6030
6030
c018
c018
ENDCHAR
STARTCHAR logicalnot
ENCODING -1 88
SWIDTH 0 0
DWIDTH 17 0
BBX 15 8 1 -1
BITMAP
fffe
fffe
0006
0006
0006
0006
0006
0006
ENDCHAR
STARTCHAR dotmath
ENCODING -1 87
SWIDTH 0 0
DWIDTH 6 0
BBX 2 2 2 5
BITMAP
c000
c000
ENDCHAR
STARTCHAR radical
ENCODING -1 86
SWIDTH 0 0
DWIDTH 14 0
BBX 14 23 0 -1
BITMAP
0004
0004
0004
000c
000c
0008
0008
0008
0018
3018
7010
d810
1810
0c30
0c30
0620
0620
0320
0360
01c0
01c0
00c0
00c0
ENDCHAR
STARTCHAR product
ENCODING -1 85
SWIDTH 0 0
DWIDTH 19 0
BBX 17 21 1 -4
BITMAP
ffff8000
30060000
30060000
30060000
30060000
30060000
30060000
30060000
30060000
30060000
30060000
30060000
30060000
30060000
30060000
30060000
30060000
30060000
30060000
30060000
fc1f8000
ENDCHAR
STARTCHAR trademarkserif
ENCODING -1 84
SWIDTH 0 0
DWIDTH 22 0
BBX 20 10 1 6
BITMAP
ff607000
99606000
1870e000
1870e000
18596000
18596000
184e6000
184e6000
18466000
3ce6f000
ENDCHAR
STARTCHAR copyrightserif
ENCODING -1 83
SWIDTH 0 0
DWIDTH 18 0
BBX 16 17 1 -1
BITMAP
07e0
1e78
381c
6006
63e6
c663
cc23
cc03
cc03
cc03
cc03
ce33
67e6
63c6
381c
1e78
07e0
ENDCHAR
STARTCHAR registerserif
ENCODING -1 82
SWIDTH 0 0
DWIDTH 18 0
BBX 16 17 1 -1
BITMAP
07e0
1e78
381c
6006
6fe6
c673
c633
c673
c7e3
c6c3
c663
c633
6f3e
6006
381c
1e78
07e0
ENDCHAR
STARTCHAR gradient
ENCODING -1 81
SWIDTH 0 0
DWIDTH 18 0
BBX 16 18 1 -1
BITMAP
ffff
c003
c002
6006
6004
300c
3008
3018
1810
1830
0c20
0c20
0660
0640
03c0
03c0
0180
0180
ENDCHAR
STARTCHAR angle
ENCODING -1 80
SWIDTH 0 0
DWIDTH 19 0
BBX 17 16 1 -1
BITMAP
00018000
00030000
00060000
000c0000
00180000
00300000
00600000
00c00000
01800000
03000000
06000000
0c000000
18000000
30000000
7fff8000
ffff8000
ENDCHAR
STARTCHAR notelement
ENCODING -1 79
SWIDTH 0 0
DWIDTH 16 0
BBX 12 15 2 -2
BITMAP
00c0
1ff0
7ff0
6180
c180
c300
c300
fff0
c600
c600
cc00
6c00
7ff0
1ff0
1800
ENDCHAR
STARTCHAR element
ENCODING -1 78
SWIDTH 0 0
DWIDTH 16 0
BBX 12 13 2 -1
BITMAP
1ff0
7ff0
6000
c000
c000
c000
fff0
c000
c000
c000
6000
7ff0
1ff0
ENDCHAR
STARTCHAR reflexsubset
ENCODING -1 77
SWIDTH 0 0
DWIDTH 17 0
BBX 15 15 1 -4
BITMAP
0ffe
3ffe
7000
6000
c000
c000
c000
c000
6000
7000
3ffe
0ffe
0000
fffe
fffe
ENDCHAR
STARTCHAR propersubset
ENCODING -1 76
SWIDTH 0 0
DWIDTH 17 0
BBX 15 12 1 -1
BITMAP
0ffe
3ffe
7000
6000
c000
c000
c000
c000
6000
7000
3ffe
0ffe
ENDCHAR
STARTCHAR notsubset
ENCODING -1 75
SWIDTH 0 0
DWIDTH 17 0
BBX 15 16 1 -3
BITMAP
000c
000c
0ffe
3ffe
7030
6030
c060
c060
c0c0
c0c0
6180
7180
3ffe
0ffe
0600
0600
ENDCHAR
STARTCHAR reflexsuperset
ENCODING -1 74
SWIDTH 0 0
DWIDTH 17 0
BBX 15 15 1 -4
BITMAP
ffe0
fff8
001c
000c
0006
0006
0006
0006
000c
001c
fff8
ffe0
0000
fffe
fffe
ENDCHAR
STARTCHAR propersuperset
ENCODING -1 73
SWIDTH 0 0
DWIDTH 17 0
BBX 15 12 1 -1
BITMAP
ffe0
fff8
001c
000c
0006
0006
0006
0006
000c
001c
fff8
ffe0
ENDCHAR
STARTCHAR union
ENCODING -1 72
SWIDTH 0 0
DWIDTH 18 0
BBX 16 13 1 -1
BITMAP
c003
c003
c003
c003
c003
c003
c003
c003
6006
6006
381c
1ff8
07e0
ENDCHAR
STARTCHAR intersection
ENCODING -1 71
SWIDTH 0 0
DWIDTH 18 0
BBX 16 13 1 -1
BITMAP
07e0
1ff8
381c
6006
6006
c003
c003
c003
c003
c003
c003
c003
c003
ENDCHAR
STARTCHAR emptyset
ENCODING -1 70
SWIDTH 0 0
DWIDTH 20 0
BBX 18 17 1 -1
BITMAP
03f0c000
0ffd8000
1c0f0000
30070000
300f0000
60198000
60318000
60618000
60c18000
61818000
63018000
66018000
3c030000
38030000
3c0e0000
6ffc0000
c3f00000
ENDCHAR
STARTCHAR circleplus
ENCODING -1 69
SWIDTH 0 0
DWIDTH 18 0
BBX 16 17 1 -1
BITMAP
07e0
1e78
381c
6186
6186
c183
c183
cff3
cff3
c183
c183
c183
6186
6006
381c
1e78
07e0
ENDCHAR
STARTCHAR circlemultiply
ENCODING -1 68
SWIDTH 0 0
DWIDTH 18 0
BBX 16 17 1 -1
BITMAP
07e0
1e78
381c
6006
6816
cc33
c663
c3c3
c183
c3c3
c663
cc33
6816
6006
381c
1e78
07e0
ENDCHAR
STARTCHAR weierstrass
ENCODING -1 67
SWIDTH 0 0
DWIDTH 19 0
BBX 15 20 2 -6
BITMAP
0600
0c00
183c
30fe
3186
6306
6606
6c06
680c
799c
7398
7230
7a70
5be0
dd80
8c00
8c00
8c00
d800
7000
ENDCHAR
STARTCHAR Rfraktur
ENCODING -1 66
SWIDTH 0 0
DWIDTH 19 0
BBX 17 18 1 -1
BITMAP
1e180000
3f3c0000
63ce0000
c1870000
81830000
c1860000
e18c0000
71b80000
39b00000
19980000
11980000
01980000
019c0000
018c0000
018c0000
19868000
3f078000
4e070000
ENDCHAR
STARTCHAR Ifraktur
ENCODING -1 65
SWIDTH 0 0
DWIDTH 16 0
BBX 14 19 1 -2
BITMAP
0f80
3ffc
70f8
6030
4060
40c0
60c0
30e0
1c70
0038
0038
001c
001c
000c
300c
780c
de18
0ff0
03c0
ENDCHAR
STARTCHAR aleph
ENCODING -1 64
SWIDTH 0 0
DWIDTH 14 0
BBX 12 16 1 -1
BITMAP
8180
c300
e3f0
71f0
3860
1cc0
3c80
6e80
c780
c380
e380
f1c0
70e0
3070
7030
e010
ENDCHAR
STARTCHAR carriagereturn
ENCODING -1 63
SWIDTH 0 0
DWIDTH 16 0
BBX 14 16 1 -1
BITMAP
000c
000c
000c
000c
000c
000c
000c
000c
000c
000c
200c
600c
fffc
fffc
6000
2000
ENDCHAR
STARTCHAR arrowhorizex
ENCODING -1 62
SWIDTH 0 0
DWIDTH 25 0
BBX 25 2 0 5
BITMAP
ffffff80
ffffff80
ENDCHAR
STARTCHAR arrowvertex
ENCODING -1 61
SWIDTH 0 0
DWIDTH 14 0
BBX 2 28 6 -6
BITMAP
c000
c000
c000
c000
c000
c000
c000
c000
c000
c000
c000
c000
c000
c000
c000
c000
c000
c000
c000
c000
c000
c000
c000
c000
c000
c000
c000
c000
ENDCHAR
STARTCHAR ellipsis
ENCODING -1 60
SWIDTH 0 0
DWIDTH 24 0
BBX 18 2 3 -1
BITMAP
c0c0c000
c0c0c000
ENDCHAR
STARTCHAR approxequal
ENCODING -1 59
SWIDTH 0 0
DWIDTH 13 0
BBX 11 8 1 2
BITMAP
3820
7c60
c7c0
8380
3820
7c60
c7c0
8380
ENDCHAR
STARTCHAR equivalence
ENCODING -1 58
SWIDTH 0 0
DWIDTH 13 0
BBX 11 8 1 2
BITMAP
ffe0
ffe0
0000
ffe0
ffe0
0000
ffe0
ffe0
ENDCHAR
STARTCHAR notequal
ENCODING -1 57
SWIDTH 0 0
DWIDTH 14 0
BBX 10 13 2 -1
BITMAP
0180
0180
0300
0300
ffc0
ffc0
0c00
ffc0
ffc0
3000
3000
6000
6000
ENDCHAR
STARTCHAR divide
ENCODING -1 56
SWIDTH 0 0
DWIDTH 12 0
BBX 10 8 1 2
BITMAP
0c00
0c00
0000
ffc0
ffc0
0000
0c00
0c00
ENDCHAR
STARTCHAR bullet
ENCODING -1 55
SWIDTH 0 0
DWIDTH 12 0
BBX 8 8 2 2
BITMAP
3c00
7e00
ff00
ff00
ff00
ff00
7e00
3c00
ENDCHAR
STARTCHAR partialdiff
ENCODING -1 54
SWIDTH 0 0
DWIDTH 12 0
BBX 10 19 1 -1
BITMAP
3e00
6300
c180
0180
00c0
00c0
00c0
00c0
1ec0
73c0
61c0
c0c0
c0c0
c180
c180
c180
e300
7700
3e00
ENDCHAR
STARTCHAR proportional
ENCODING -1 53
SWIDTH 0 0
DWIDTH 16 0
BBX 14 7 1 3
BITMAP
3838
7c7c
c6c0
c380
c7c0
7c7c
3838
ENDCHAR
STARTCHAR multiply
ENCODING -1 52
SWIDTH 0 0
DWIDTH 13 0
BBX 11 10 1 1
BITMAP
c060
60c0
3180
1b00
0e00
0e00
1b00
3180
60c0
c060
ENDCHAR
STARTCHAR greaterequal
ENCODING -1 51
SWIDTH 0 0
DWIDTH 14 0
BBX 12 15 0 -1
BITMAP
e000
7800
1e00
0780
01e0
0070
0070
01e0
0780
3e00
f000
c000
0000
fff0
fff0
ENDCHAR
STARTCHAR second
ENCODING -1 50
SWIDTH 0 0
DWIDTH 10 0
BBX 9 6 1 11
BITMAP
1980
3b80
7700
6600
cc00
8800
ENDCHAR
STARTCHAR plusminus
ENCODING -1 49
SWIDTH 0 0
DWIDTH 12 0
BBX 10 14 1 -1
BITMAP
0c00
0c00
0c00
0c00
ffc0
ffc0
0c00
0c00
0c00
0c00
0000
0000
ffc0
ffc0
ENDCHAR
STARTCHAR degree
ENCODING -1 48
SWIDTH 0 0
DWIDTH 9 0
BBX 7 7 1 9
BITMAP
3800
6c00
c600
c600
c600
6c00
3800
ENDCHAR
STARTCHAR arrowdown
ENCODING -1 47
SWIDTH 0 0
DWIDTH 14 0
BBX 12 28 1 -6
BITMAP
0600
0600
0600
0600
0600
0600
0600
0600
0600
0600
0600
0600
0600
0600
0600
0600
0600
0600
0600
0600
0600
0600
c630
6660
36c0
1f80
0f00
0600
ENDCHAR
STARTCHAR arrowright
ENCODING -1 46
SWIDTH 0 0
DWIDTH 25 0
BBX 25 12 0 0
BITMAP
00003000
00001800
00000c00
00000600
00000300
ffffff80
ffffff80
00000300
00000600
00000c00
00001800
00003000
ENDCHAR
STARTCHAR arrowup
ENCODING -1 45
SWIDTH 0 0
DWIDTH 14 0
BBX 12 28 1 -6
BITMAP
0600
0f00
1f80
36c0
6660
c630
0600
0600
0600
0600
0600
0600
0600
0600
0600
0600
0600
0600
0600
0600
0600
0600
0600
0600
0600
0600
0600
0600
ENDCHAR
STARTCHAR arrowleft
ENCODING -1 44
SWIDTH 0 0
DWIDTH 25 0
BBX 25 12 0 0
BITMAP
06000000
0c000000
18000000
30000000
60000000
ffffff80
ffffff80
60000000
30000000
18000000
0c000000
06000000
ENDCHAR
STARTCHAR arrowboth
ENCODING -1 43
SWIDTH 0 0
DWIDTH 26 0
BBX 24 12 1 0
BITMAP
06006000
0c003000
18001800
30000c00
60000600
ffffff00
ffffff00
60000600
30000c00
18001800
0c003000
06006000
ENDCHAR
STARTCHAR spade
ENCODING -1 42
SWIDTH 0 0
DWIDTH 18 0
BBX 12 13 3 -1
BITMAP
0600
0f00
1f80
1f80
3fc0
7fe0
7fe0
fff0
fff0
f6f0
6660
0600
0600
ENDCHAR
STARTCHAR heart
ENCODING -1 41
SWIDTH 0 0
DWIDTH 18 0
BBX 12 13 3 -1
BITMAP
70e0
f9f0
fff0
fff0
fff0
fff0
7fe0
7fe0
3fc0
1f80
1f80
0f00
0600
ENDCHAR
STARTCHAR diamond
ENCODING -1 40
SWIDTH 0 0
DWIDTH 18 0
BBX 10 13 4 -1
BITMAP
0c00
1e00
3f00
3f00
7f80
7f80
ffc0
7f80
7f80
3f00
1e00
1e00
0c00
ENDCHAR
STARTCHAR club
ENCODING -1 39
SWIDTH 0 0
DWIDTH 18 0
BBX 14 13 2 -1
BITMAP
0780
0fc0
0fc0
0fc0
0fc0
77b8
fb7c
fffc
fffc
fb7c
7338
0300
0780
ENDCHAR
STARTCHAR florin
ENCODING -1 38
SWIDTH 0 0
DWIDTH 13 0
BBX 13 22 0 -6
BITMAP
00f0
0198
0198
0300
0300
0300
1fc0
0600
0600
0600
0600
0600
0600
0600
0600
0600
0600
0600
0600
cc00
cc00
7800
ENDCHAR
STARTCHAR infinity
ENCODING -1 37
SWIDTH 0 0
DWIDTH 17 0
BBX 15 7 1 3
BITMAP
3838
7c7c
c6c6
c386
c7c6
7c7c
3838
ENDCHAR
STARTCHAR fraction
ENCODING -1 36
SWIDTH 0 0
DWIDTH 4 0
BBX 8 17 -1 -1
BITMAP
0300
0300
0600
0600
0c00
0c00
1800
1800
1800
3000
3000
6000
6000
6000
c000
c000
c000
ENDCHAR
STARTCHAR lessequal
ENCODING -1 35
SWIDTH 0 0
DWIDTH 14 0
BBX 12 15 0 -1
BITMAP
0070
01e0
0780
1e00
7800
e000
e000
7800
1e00
03c0
00f0
0030
0000
fff0
fff0
ENDCHAR
STARTCHAR minute
ENCODING -1 34
SWIDTH 0 0
DWIDTH 6 0
BBX 5 6 1 11
BITMAP
1800
3800
7000
6000
c000
8000
ENDCHAR
STARTCHAR Upsilon1
ENCODING -1 33
SWIDTH 0 0
DWIDTH 15 0
BBX 13 17 1 -1
BITMAP
e070
70d8
39b8
1b30
0e00
0600
0600
0600
0600
0600
0600
0600
0600
0600
0600
0600
1f80
ENDCHAR
ENDFONT
